<?xml version="1.0" standalone="no"?>
<!DOCTYPE svg PUBLIC "-//W3C//DTD SVG 20010904//EN"
 "http://www.w3.org/TR/2001/REC-SVG-20010904/DTD/svg10.dtd">
<svg version="1.0" xmlns="http://www.w3.org/2000/svg"
 width="2250.000000pt" height="2250.000000pt" viewBox="0 0 2250.000000 2250.000000"
 preserveAspectRatio="xMidYMid meet">

<g transform="translate(0.000000,2250.000000) scale(0.100000,-0.100000)"
fill="#000000" stroke="none">
<path d="M5280 12791 c-118 -36 -205 -129 -236 -251 -50 -199 87 -403 287
-427 31 -4 53 -2 57 5 4 5 6 161 4 346 l-3 336 -42 -1 c-23 0 -53 -4 -67 -8z"/>
<path d="M5575 12455 c0 -315 -3 -306 65 -228 58 66 84 137 84 228 0 91 -26
162 -84 228 -68 78 -65 87 -65 -228z"/>
<path d="M8205 12629 c-280 -38 -517 -169 -664 -368 -103 -139 -176 -316 -201
-489 -20 -134 -8 -385 23 -504 104 -393 385 -657 781 -733 96 -19 347 -22 451
-5 203 31 332 103 439 243 53 71 120 186 150 259 l16 36 -47 26 c-25 15 -47
25 -48 24 -2 -2 -15 -29 -29 -60 -33 -70 -113 -160 -181 -203 -27 -18 -84 -45
-125 -61 -70 -26 -85 -28 -220 -28 -131 0 -153 2 -225 27 -270 90 -444 310
-491 620 -30 196 -1 549 62 735 85 255 240 382 464 382 197 0 366 -154 378
-346 6 -94 -15 -158 -75 -224 l-46 -51 29 -36 c40 -49 118 -91 204 -109 166
-34 312 41 370 192 35 88 34 219 -1 294 -87 183 -290 311 -579 365 -105 19
-341 27 -435 14z"/>
<path d="M12665 12614 c-190 -37 -325 -160 -396 -359 l-18 -50 0 175 c-1 198
-7 220 -63 220 -17 0 -181 -41 -365 -92 l-333 -92 0 -32 c0 -30 2 -32 60 -43
76 -15 135 -59 169 -126 l26 -50 3 -659 c3 -728 3 -724 -59 -800 -37 -44 -118
-86 -166 -86 -31 0 -33 -2 -33 -35 l0 -35 513 2 512 3 0 30 c0 28 -3 30 -48
37 -103 14 -183 93 -207 202 -8 36 -10 224 -8 626 4 556 5 578 27 660 65 248
188 378 370 388 66 3 82 1 121 -20 64 -35 100 -91 107 -164 4 -51 1 -67 -24
-114 -30 -58 -84 -100 -132 -100 -22 0 -23 -3 -18 -37 15 -88 121 -163 242
-171 87 -5 185 19 185 46 0 15 2 15 10 2 5 -8 10 -12 11 -7 5 26 3 34 -10 48
-14 13 -16 50 -13 267 2 202 5 252 16 252 7 0 13 10 12 21 -1 16 -16 30 -56
50 -110 55 -286 73 -435 43z m479 -89 c-4 -8 -8 -15 -10 -15 -2 0 -4 7 -4 15
0 8 4 15 10 15 5 0 7 -7 4 -15z"/>
<path d="M10237 12599 c-358 -29 -569 -188 -568 -425 1 -164 88 -273 234 -290
100 -12 228 45 257 115 12 30 11 34 -13 59 -38 40 -76 130 -83 199 -9 88 14
159 69 210 57 53 103 68 207 68 94 0 142 -18 191 -72 65 -69 88 -153 96 -349
l6 -151 -38 -42 c-41 -45 -141 -98 -238 -125 -32 -10 -136 -33 -230 -52 -244
-49 -349 -79 -455 -130 -169 -82 -263 -202 -295 -379 -20 -110 -20 -160 -2
-246 61 -295 313 -443 790 -465 196 -9 311 25 416 123 l49 46 0 -72 0 -71 380
0 380 0 0 35 c0 33 -2 35 -32 35 -43 0 -126 40 -160 76 -15 16 -37 52 -50 79
l-23 50 -5 670 -5 670 -27 69 c-89 230 -273 339 -620 366 -68 5 -125 9 -128 8
-3 0 -49 -4 -103 -9z m367 -1826 c-59 -101 -142 -155 -270 -175 -140 -22 -270
17 -351 105 -90 98 -118 190 -117 392 0 225 43 358 146 450 67 60 131 92 304
149 140 46 236 94 284 142 l25 24 3 -521 2 -522 -26 -44z"/>
<path d="M17620 12598 c-246 -14 -422 -81 -523 -198 -107 -126 -104 -346 7
-448 52 -48 102 -66 181 -66 77 0 128 18 177 62 61 55 64 66 28 112 -57 72
-75 125 -75 226 0 83 2 94 30 140 24 37 44 56 90 79 52 27 68 30 149 30 69 0
99 -4 126 -19 117 -62 158 -160 167 -402 l6 -151 -38 -42 c-69 -76 -193 -123
-485 -181 -351 -70 -482 -122 -596 -236 -102 -102 -145 -218 -145 -394 -1
-175 38 -276 145 -379 139 -133 368 -201 689 -204 115 -2 152 2 197 17 73 24
134 60 187 109 l43 40 0 -72 0 -71 380 0 380 0 0 34 c0 32 -2 34 -45 39 -87
12 -166 72 -202 152 -17 37 -18 93 -23 710 -5 610 -7 675 -24 725 -92 282
-373 414 -826 388z m335 -1825 c-69 -117 -191 -183 -340 -183 -184 0 -315 94
-377 270 -20 58 -23 83 -22 240 0 164 1 180 27 253 33 95 61 140 120 194 60
55 134 92 301 147 151 50 209 78 271 130 l40 34 3 -520 2 -521 -25 -44z"/>
<path d="M16176 12535 c-3 -8 -4 -450 -3 -983 l2 -967 2 958 c2 632 7 957 13
957 7 0 10 -328 10 -972 l0 -973 235 -3 235 -2 0 35 c0 31 -3 35 -26 35 -77 0
-166 57 -207 134 -22 41 -22 43 -28 726 -6 752 -7 765 -69 897 -27 60 -95 139
-138 162 -16 8 -21 7 -26 -4z"/>
<path d="M4482 12494 c-50 -171 -34 -353 49 -532 139 -301 449 -510 764 -515
55 -1 101 1 103 6 1 4 2 97 2 206 l0 200 -57 5 c-104 11 -217 37 -291 68 -217
90 -413 286 -522 521 l-36 79 -12 -38z"/>
<path d="M6213 12427 c-66 -131 -147 -242 -242 -329 l-74 -67 2 -213 c0 -117
1 -217 1 -221 0 -14 92 55 155 117 106 105 176 224 221 373 34 114 38 293 8
387 l-19 59 -52 -106z"/>
<path d="M13176 12518 c3 -7 17 -22 32 -32 27 -19 27 -19 -2 12 -32 35 -38 38
-30 20z"/>
<path d="M13293 12240 c0 -25 2 -35 4 -22 2 12 2 32 0 45 -2 12 -4 2 -4 -23z"/>
<path d="M3765 12198 c2 -7 74 -272 160 -588 86 -316 244 -894 351 -1283 107
-390 194 -710 194 -713 0 -2 129 -4 288 -4 l287 0 -2 646 -2 647 -113 116
c-62 64 -349 358 -637 654 -288 295 -525 537 -527 537 -2 0 -1 -6 1 -12z"/>
<path d="M6720 11931 l-271 -279 1 -660 c0 -462 -3 -662 -10 -667 -8 -5 -8
-11 1 -21 6 -7 8 -21 5 -30 -3 -9 -3 -21 1 -27 8 -13 -2 -45 309 1083 129 470
237 861 239 868 2 6 3 12 1 12 -3 0 -126 -125 -276 -279z"/>
<path d="M13240 12040 c-6 -11 -8 -20 -6 -20 3 0 10 9 16 20 6 11 8 20 6 20
-3 0 -10 -9 -16 -20z"/>
<path d="M13196 11984 c-15 -14 -26 -27 -24 -29 2 -3 17 9 33 25 35 36 30 39
-9 4z"/>
<path d="M5577 10762 l-198 -198 168 -174 168 -173 3 -295 c2 -233 0 -297 -10
-303 -7 -5 119 -9 280 -9 261 0 292 2 292 16 0 9 -114 132 -252 274 l-253 258
5 380 c3 209 1 378 -3 375 -4 -2 -5 7 -1 21 3 14 5 26 2 26 -2 0 -92 -89 -201
-198z"/>
<path d="M17600 10049 l0 -201 -59 55 c-70 64 -129 88 -215 86 l-61 -2 70 -7
c88 -8 118 -18 111 -36 -3 -7 -1 -16 5 -20 5 -3 7 -14 4 -24 -4 -12 0 -20 13
-24 27 -9 98 -83 116 -121 25 -52 22 -216 -5 -271 -23 -48 -89 -98 -153 -115
-103 -28 -225 32 -279 136 -9 17 -16 25 -17 19 0 -5 13 -31 30 -57 55 -86 160
-132 256 -110 24 6 44 9 44 7 0 -1 -4 -14 -10 -29 -7 -17 -7 -24 0 -20 6 3 10
1 10 -5 0 -17 61 18 108 63 l42 41 0 -45 c0 -63 28 -86 93 -81 22 2 25 70 2
78 -13 5 -15 64 -15 445 l0 439 -45 0 -45 0 0 -201z"/>
<path d="M13780 9974 c-96 -35 -179 -123 -211 -225 -49 -156 9 -333 137 -417
61 -41 112 -55 200 -55 105 1 210 53 255 127 24 40 24 45 -3 55 -60 22 -64 22
-76 -4 -6 -14 -33 -38 -58 -55 -148 -93 -322 -13 -371 172 -14 56 -15 73 -4
120 46 210 268 282 410 135 32 -34 34 -35 70 -23 20 7 37 20 39 29 5 24 -65
95 -122 125 -65 33 -196 41 -266 16z"/>
<path d="M14579 9968 c-37 -13 -83 -36 -103 -51 l-36 -28 17 -30 c10 -16 20
-28 23 -27 3 2 36 19 74 38 60 30 79 34 141 34 62 0 78 -3 114 -27 51 -34 80
-92 81 -159 l0 -47 -32 12 c-19 7 -85 12 -153 12 -105 0 -127 -3 -173 -24 -94
-42 -140 -119 -128 -215 22 -188 273 -244 460 -101 l34 26 6 -35 c8 -43 27
-58 74 -60 35 -1 37 1 40 33 3 24 -2 39 -18 53 -20 18 -20 28 -20 223 1 180
-1 209 -18 247 -41 95 -116 140 -237 145 -64 3 -93 -1 -146 -19z m274 -358
c37 -11 37 -11 37 -66 0 -30 -7 -68 -15 -85 -48 -92 -234 -141 -314 -82 -38
29 -71 82 -71 115 0 60 39 103 120 129 33 11 194 4 243 -11z"/>
<path d="M15573 9971 c-56 -19 -113 -58 -155 -105 l-27 -31 -1 73 0 72 -40 0
-40 0 0 -345 0 -345 45 0 45 0 0 210 c0 237 3 253 69 319 53 53 92 72 161 78
75 7 111 -12 141 -74 23 -46 24 -60 27 -290 l4 -243 44 0 44 0 0 218 c0 245
-10 325 -47 394 -46 84 -150 111 -270 69z"/>
<path d="M16340 9971 c-55 -17 -140 -61 -140 -72 0 -3 36 13 80 34 67 34 93
41 167 47 l88 7 -70 1 c-42 1 -92 -6 -125 -17z"/>
<path d="M18149 9972 c-76 -25 -139 -62 -139 -82 0 -8 7 -25 15 -37 l15 -21
67 33 c182 92 343 25 343 -143 l0 -49 -62 14 c-90 21 -227 13 -296 -16 -116
-51 -162 -173 -106 -282 19 -38 76 -85 121 -100 97 -32 240 -3 321 67 l42 36
0 -35 c0 -42 37 -77 81 -77 27 0 29 3 29 39 0 24 -5 41 -14 44 -12 5 -15 47
-18 219 -3 191 -5 218 -24 258 -25 53 -72 102 -123 126 -54 26 -182 29 -252 6z
m264 -362 l37 -11 0 -65 c0 -63 -1 -66 -44 -109 -74 -74 -217 -98 -284 -48
-41 30 -72 82 -72 120 0 42 49 98 105 119 45 16 194 13 258 -6z"/>
<path d="M16548 9973 c7 -3 16 -2 19 1 4 3 -2 6 -13 5 -11 0 -14 -3 -6 -6z"/>
<path d="M16580 9966 c0 -2 7 -7 16 -10 8 -3 12 -2 9 4 -6 10 -25 14 -25 6z"/>
<path d="M17205 9960 c-3 -6 1 -7 9 -4 18 7 21 14 7 14 -6 0 -13 -4 -16 -10z"/>
<path d="M16642 9690 c0 -19 2 -27 5 -17 2 9 2 25 0 35 -3 9 -5 1 -5 -18z"/>
<path d="M16311 9682 c-29 -11 -65 -28 -80 -39 -32 -24 -71 -80 -71 -102 0 -9
10 4 22 28 26 54 89 96 167 112 53 11 201 8 261 -6 l25 -6 -25 12 c-14 6 -74
13 -135 15 -91 4 -119 1 -164 -14z"/>
<path d="M17113 9620 c0 -25 2 -35 4 -22 2 12 2 32 0 45 -2 12 -4 2 -4 -23z"/>
<path d="M16643 9550 c0 -25 2 -35 4 -22 2 12 2 32 0 45 -2 12 -4 2 -4 -23z"/>
<path d="M16151 9494 c0 -11 3 -14 6 -6 3 7 2 16 -1 19 -3 4 -6 -2 -5 -13z"/>
<path d="M16625 9461 c-30 -59 -99 -97 -200 -111 -51 -6 -54 -8 -19 -9 91 -3
194 51 230 120 8 16 12 29 10 29 -3 0 -12 -13 -21 -29z"/>
<path d="M16328 9358 c5 -5 16 -8 23 -6 8 3 3 7 -10 11 -17 4 -21 3 -13 -5z"/>
</g>
</svg>
